# xmcd
#
# Track frame offsets:
#	150
#	16232
#	29047
#
# Disc length: 572 seconds
#
# Revision: 0
# Processed by: cddbd v1.5.2PL0 Copyright (c) Steve Scherf et al.
# Submitted via: dBpowerAMP V4.0
#
DISCID=1d023a03
DTITLE=Felicity - Planet of Love (Single)
DYEAR=1900
DGENRE=
TTITLE0=Planet of Love
TTITLE1=In My Dreams
TTITLE2=Deep Water
EXTD=
EXTT0=
EXTT1=
EXTT2=
PLAYORDER=
